<mxfile host="app.diagrams.net" modified="2023-12-07T01:27:47.229Z" agent="Mozilla/5.0 (Windows NT 10.0; Win64; x64; rv:120.0) Gecko/20100101 Firefox/120.0" etag="-VDEpOFnVZ1t1GcvD490" version="22.1.7" type="device">
  <diagram name="Page-1" id="TsFG8aKi7KO6-BuDQ5cY">
    <mxGraphModel dx="2082" dy="1094" grid="1" gridSize="10" guides="1" tooltips="1" connect="1" arrows="1" fold="1" page="1" pageScale="1" pageWidth="850" pageHeight="1100" math="0" shadow="0">
      <root>
        <mxCell id="0" />
        <mxCell id="1" parent="0" />
        <mxCell id="PSZr49bw3Ce8EWtMsC6k-1" value="&lt;div align=&quot;center&quot;&gt;User Account&lt;br&gt;&lt;/div&gt;" style="rounded=0;whiteSpace=wrap;html=1;align=center;" vertex="1" parent="1">
          <mxGeometry x="350" y="500" width="120" height="60" as="geometry" />
        </mxCell>
        <mxCell id="PSZr49bw3Ce8EWtMsC6k-2" value="&lt;div&gt;Password&lt;/div&gt;" style="ellipse;whiteSpace=wrap;html=1;" vertex="1" parent="1">
          <mxGeometry x="540" y="490" width="120" height="80" as="geometry" />
        </mxCell>
        <mxCell id="PSZr49bw3Ce8EWtMsC6k-3" value="&lt;u&gt;Username&lt;/u&gt;" style="ellipse;whiteSpace=wrap;html=1;" vertex="1" parent="1">
          <mxGeometry x="530" y="680" width="120" height="80" as="geometry" />
        </mxCell>
        <mxCell id="PSZr49bw3Ce8EWtMsC6k-4" value="&lt;div&gt;Has &lt;br&gt;&lt;/div&gt;" style="rhombus;whiteSpace=wrap;html=1;" vertex="1" parent="1">
          <mxGeometry x="350" y="370" width="120" height="80" as="geometry" />
        </mxCell>
        <mxCell id="PSZr49bw3Ce8EWtMsC6k-6" value="&lt;div&gt;Session&lt;/div&gt;" style="rounded=0;whiteSpace=wrap;html=1;" vertex="1" parent="1">
          <mxGeometry x="350" y="240" width="120" height="60" as="geometry" />
        </mxCell>
        <mxCell id="PSZr49bw3Ce8EWtMsC6k-8" value="&lt;div&gt;Date&lt;/div&gt;" style="ellipse;whiteSpace=wrap;html=1;" vertex="1" parent="1">
          <mxGeometry x="570" y="230" width="150" height="80" as="geometry" />
        </mxCell>
        <mxCell id="PSZr49bw3Ce8EWtMsC6k-9" value="Time" style="ellipse;whiteSpace=wrap;html=1;" vertex="1" parent="1">
          <mxGeometry x="350" y="100" width="120" height="80" as="geometry" />
        </mxCell>
        <mxCell id="PSZr49bw3Ce8EWtMsC6k-12" value="&lt;div&gt;Duration&lt;/div&gt;" style="ellipse;whiteSpace=wrap;html=1;dashed=1;" vertex="1" parent="1">
          <mxGeometry x="130" y="230" width="120" height="80" as="geometry" />
        </mxCell>
        <mxCell id="PSZr49bw3Ce8EWtMsC6k-13" value="Start time" style="ellipse;whiteSpace=wrap;html=1;" vertex="1" parent="1">
          <mxGeometry x="-50" y="350" width="120" height="80" as="geometry" />
        </mxCell>
        <mxCell id="PSZr49bw3Ce8EWtMsC6k-14" value="Stop Time" style="ellipse;whiteSpace=wrap;html=1;" vertex="1" parent="1">
          <mxGeometry x="110" y="420" width="120" height="80" as="geometry" />
        </mxCell>
        <mxCell id="PSZr49bw3Ce8EWtMsC6k-20" value="" style="endArrow=none;html=1;rounded=0;" edge="1" parent="1" source="PSZr49bw3Ce8EWtMsC6k-13" target="PSZr49bw3Ce8EWtMsC6k-12">
          <mxGeometry width="50" height="50" relative="1" as="geometry">
            <mxPoint x="80" y="360" as="sourcePoint" />
            <mxPoint x="130" y="310" as="targetPoint" />
          </mxGeometry>
        </mxCell>
        <mxCell id="PSZr49bw3Ce8EWtMsC6k-21" value="" style="endArrow=none;html=1;rounded=0;" edge="1" parent="1" source="PSZr49bw3Ce8EWtMsC6k-14" target="PSZr49bw3Ce8EWtMsC6k-12">
          <mxGeometry width="50" height="50" relative="1" as="geometry">
            <mxPoint x="170" y="420" as="sourcePoint" />
            <mxPoint x="220" y="370" as="targetPoint" />
          </mxGeometry>
        </mxCell>
        <mxCell id="PSZr49bw3Ce8EWtMsC6k-22" value="" style="endArrow=none;html=1;rounded=0;" edge="1" parent="1" source="PSZr49bw3Ce8EWtMsC6k-12" target="PSZr49bw3Ce8EWtMsC6k-6">
          <mxGeometry width="50" height="50" relative="1" as="geometry">
            <mxPoint x="280" y="280" as="sourcePoint" />
            <mxPoint x="330" y="230" as="targetPoint" />
          </mxGeometry>
        </mxCell>
        <mxCell id="PSZr49bw3Ce8EWtMsC6k-23" value="" style="endArrow=none;html=1;rounded=0;entryX=0.5;entryY=1;entryDx=0;entryDy=0;exitX=0.5;exitY=0;exitDx=0;exitDy=0;" edge="1" parent="1" source="PSZr49bw3Ce8EWtMsC6k-6" target="PSZr49bw3Ce8EWtMsC6k-9">
          <mxGeometry width="50" height="50" relative="1" as="geometry">
            <mxPoint x="400" y="240" as="sourcePoint" />
            <mxPoint x="450" y="190" as="targetPoint" />
          </mxGeometry>
        </mxCell>
        <mxCell id="PSZr49bw3Ce8EWtMsC6k-25" value="" style="endArrow=none;html=1;rounded=0;" edge="1" parent="1" source="PSZr49bw3Ce8EWtMsC6k-6" target="PSZr49bw3Ce8EWtMsC6k-8">
          <mxGeometry width="50" height="50" relative="1" as="geometry">
            <mxPoint x="490" y="295" as="sourcePoint" />
            <mxPoint x="540" y="245" as="targetPoint" />
          </mxGeometry>
        </mxCell>
        <mxCell id="PSZr49bw3Ce8EWtMsC6k-27" value="" style="endArrow=none;html=1;rounded=0;entryX=0.5;entryY=1;entryDx=0;entryDy=0;exitX=0.5;exitY=0;exitDx=0;exitDy=0;" edge="1" parent="1" source="PSZr49bw3Ce8EWtMsC6k-1" target="PSZr49bw3Ce8EWtMsC6k-4">
          <mxGeometry width="50" height="50" relative="1" as="geometry">
            <mxPoint x="400" y="500" as="sourcePoint" />
            <mxPoint x="450" y="450" as="targetPoint" />
          </mxGeometry>
        </mxCell>
        <mxCell id="PSZr49bw3Ce8EWtMsC6k-28" value="" style="endArrow=none;html=1;rounded=0;entryX=0.5;entryY=1;entryDx=0;entryDy=0;" edge="1" parent="1" source="PSZr49bw3Ce8EWtMsC6k-3" target="PSZr49bw3Ce8EWtMsC6k-1">
          <mxGeometry width="50" height="50" relative="1" as="geometry">
            <mxPoint x="410" y="610" as="sourcePoint" />
            <mxPoint x="460" y="560" as="targetPoint" />
          </mxGeometry>
        </mxCell>
        <mxCell id="PSZr49bw3Ce8EWtMsC6k-29" value="" style="endArrow=none;html=1;rounded=0;" edge="1" parent="1" target="PSZr49bw3Ce8EWtMsC6k-2">
          <mxGeometry width="50" height="50" relative="1" as="geometry">
            <mxPoint x="470" y="530" as="sourcePoint" />
            <mxPoint x="520" y="480" as="targetPoint" />
          </mxGeometry>
        </mxCell>
        <mxCell id="PSZr49bw3Ce8EWtMsC6k-30" value="&lt;div&gt;Email Address&lt;/div&gt;" style="ellipse;whiteSpace=wrap;html=1;" vertex="1" parent="1">
          <mxGeometry x="350" y="680" width="120" height="80" as="geometry" />
        </mxCell>
        <mxCell id="PSZr49bw3Ce8EWtMsC6k-31" value="" style="endArrow=none;html=1;rounded=0;" edge="1" parent="1" source="PSZr49bw3Ce8EWtMsC6k-30" target="PSZr49bw3Ce8EWtMsC6k-1">
          <mxGeometry width="50" height="50" relative="1" as="geometry">
            <mxPoint x="240" y="610" as="sourcePoint" />
            <mxPoint x="330" y="520" as="targetPoint" />
          </mxGeometry>
        </mxCell>
        <mxCell id="PSZr49bw3Ce8EWtMsC6k-38" value="UID" style="ellipse;whiteSpace=wrap;html=1;" vertex="1" parent="1">
          <mxGeometry x="170" y="680" width="120" height="80" as="geometry" />
        </mxCell>
        <mxCell id="PSZr49bw3Ce8EWtMsC6k-40" value="" style="endArrow=none;html=1;rounded=0;entryX=0.5;entryY=1;entryDx=0;entryDy=0;" edge="1" parent="1" source="PSZr49bw3Ce8EWtMsC6k-38" target="PSZr49bw3Ce8EWtMsC6k-1">
          <mxGeometry width="50" height="50" relative="1" as="geometry">
            <mxPoint x="160" y="580" as="sourcePoint" />
            <mxPoint x="210" y="530" as="targetPoint" />
          </mxGeometry>
        </mxCell>
        <mxCell id="PSZr49bw3Ce8EWtMsC6k-49" value="" style="endArrow=classic;html=1;rounded=0;entryX=0.5;entryY=0;entryDx=0;entryDy=0;" edge="1" parent="1" source="PSZr49bw3Ce8EWtMsC6k-6" target="PSZr49bw3Ce8EWtMsC6k-4">
          <mxGeometry width="50" height="50" relative="1" as="geometry">
            <mxPoint x="390" y="360" as="sourcePoint" />
            <mxPoint x="440" y="310" as="targetPoint" />
          </mxGeometry>
        </mxCell>
      </root>
    </mxGraphModel>
  </diagram>
</mxfile>
